<svg width="138" height="69" viewBox="0 0 138 69" fill="none" xmlns="http://www.w3.org/2000/svg">
<path d="M10 45V39L30 53L50 39V45L30 59L10 45Z" fill="white"/>
<path d="M15.5 39.5V34.5L30 44.5L44.5 34.5V39.5L30 49.5L15.5 39.5Z" fill="white"/>
<path d="M15.5 25L30 35L44.5 25V31.5L30 41L15.5 31V25Z" fill="white"/>
<path d="M15.5 22V19.5L30 10L44.5 19.5V22L30 32L15.5 22Z" fill="white"/>
<path d="M29.9381 10L15.9376 19.5L23.5 25L29.9381 29V10Z" fill="white"/>
<path d="M30 10L15.5 19.5L30 29.5V10Z" fill="#1FAFB2"/>
<path d="M44.5 19.5L30 10V29.5L44.5 19.5Z" fill="#0F878B"/>
<path d="M64.7699 31.242C63.8632 31.242 63.0739 31.0767 62.4019 30.746C61.7405 30.4153 61.2179 29.9567 60.8339 29.37C60.4499 28.7833 60.2259 28.1007 60.1619 27.322L61.9379 27.21C62.0125 27.7433 62.1672 28.1967 62.4019 28.57C62.6365 28.9327 62.9512 29.21 63.3459 29.402C63.7512 29.5833 64.2365 29.674 64.8019 29.674C65.2925 29.674 65.7085 29.6153 66.0499 29.498C66.4019 29.37 66.6685 29.1833 66.8499 28.938C67.0312 28.6927 67.1219 28.394 67.1219 28.042C67.1219 27.722 67.0419 27.4393 66.8819 27.194C66.7325 26.938 66.4392 26.7087 66.0019 26.506C65.5752 26.2927 64.9459 26.0847 64.1139 25.882C63.2072 25.658 62.4819 25.4127 61.9379 25.146C61.3939 24.8793 60.9992 24.5487 60.7539 24.154C60.5192 23.7487 60.4019 23.2527 60.4019 22.666C60.4019 22.0153 60.5565 21.4447 60.8659 20.954C61.1859 20.4527 61.6392 20.0633 62.2259 19.786C62.8125 19.5087 63.5165 19.37 64.3379 19.37C65.2019 19.37 65.9379 19.53 66.5459 19.85C67.1645 20.17 67.6499 20.6073 68.0019 21.162C68.3645 21.7167 68.5885 22.3513 68.6739 23.066L66.8979 23.162C66.8445 22.7247 66.7112 22.3407 66.4979 22.01C66.2845 21.6687 65.9965 21.4073 65.6339 21.226C65.2712 21.034 64.8285 20.938 64.3059 20.938C63.6445 20.938 63.1219 21.0927 62.7379 21.402C62.3645 21.7007 62.1779 22.1007 62.1779 22.602C62.1779 22.922 62.2525 23.194 62.4019 23.418C62.5619 23.6313 62.8392 23.818 63.2339 23.978C63.6392 24.138 64.2099 24.3087 64.9459 24.49C65.9272 24.714 66.7059 24.9913 67.2819 25.322C67.8685 25.642 68.2845 26.0207 68.5299 26.458C68.7752 26.8953 68.8979 27.3913 68.8979 27.946C68.8979 28.618 68.7219 29.2047 68.3699 29.706C68.0285 30.1967 67.5485 30.5753 66.9299 30.842C66.3112 31.1087 65.5912 31.242 64.7699 31.242Z" fill="white"/>
<path d="M72.806 30.986V21.21H69.318V19.626H78.022V21.21H74.534V30.986H72.806Z" fill="white"/>
<path d="M79.1739 30.986V19.626H83.7019C84.5125 19.626 85.2112 19.7647 85.7979 20.042C86.3845 20.3193 86.8379 20.714 87.1579 21.226C87.4779 21.738 87.6379 22.346 87.6379 23.05C87.6379 23.562 87.5205 24.0207 87.2859 24.426C87.0619 24.8313 86.7579 25.1567 86.3739 25.402C86.0005 25.6367 85.6005 25.77 85.1739 25.802L85.0939 25.658C85.8085 25.658 86.3632 25.8233 86.7579 26.154C87.1525 26.474 87.3819 26.9807 87.4459 27.674L87.7499 30.986H86.0059L85.7339 27.898C85.7019 27.4393 85.5472 27.1033 85.2699 26.89C84.9925 26.666 84.5392 26.554 83.9099 26.554H80.9019V30.986H79.1739ZM80.9019 24.97H83.7339C84.3845 24.97 84.8965 24.81 85.2699 24.49C85.6539 24.1593 85.8459 23.6953 85.8459 23.098C85.8459 22.49 85.6539 22.026 85.2699 21.706C84.8859 21.3753 84.3259 21.21 83.5899 21.21H80.9019V24.97Z" fill="white"/>
<path d="M88.8366 30.986L92.9326 19.626H95.1246L99.2206 30.986H97.3806L96.3406 28.026H91.7006L90.6766 30.986H88.8366ZM92.2446 26.458H95.8126L94.0206 21.274L92.2446 26.458Z" fill="white"/>
<path d="M101.743 30.986V21.21H98.2555V19.626H106.959V21.21H103.471V30.986H101.743Z" fill="white"/>
<path d="M112.709 31.242C111.813 31.242 111.029 31.0713 110.357 30.73C109.696 30.378 109.184 29.882 108.821 29.242C108.469 28.602 108.293 27.8447 108.293 26.97V19.61H110.021V26.97C110.021 27.834 110.256 28.5007 110.725 28.97C111.195 29.4287 111.856 29.658 112.709 29.658C113.563 29.658 114.224 29.4287 114.693 28.97C115.163 28.5007 115.397 27.834 115.397 26.97V19.61H117.125V26.97C117.125 27.8447 116.944 28.602 116.581 29.242C116.229 29.882 115.723 30.378 115.061 30.73C114.4 31.0713 113.616 31.242 112.709 31.242Z" fill="white"/>
<path d="M119.877 30.986V19.626H122.245L125.621 28.954L128.997 19.626H131.365V30.986H129.637V22.666L126.581 30.97H124.661L121.605 22.666V30.986H119.877Z" fill="white"/>
<path d="M60.219 49.406V39.466H63.215C64.727 39.466 65.889 39.9 66.701 40.768C67.5223 41.6267 67.933 42.854 67.933 44.45C67.933 46.0367 67.5317 47.2593 66.729 48.118C65.9263 48.9767 64.783 49.406 63.299 49.406H60.219ZM61.171 48.482H63.215C64.4377 48.482 65.3617 48.1413 65.987 47.46C66.6217 46.7787 66.939 45.7753 66.939 44.45C66.939 43.106 66.6217 42.0933 65.987 41.412C65.3617 40.7307 64.4377 40.39 63.215 40.39H61.171V48.482Z" fill="white"/>
<path d="M72.0492 49.406V45.346L68.5072 39.466H69.6412L72.5252 44.38L75.4092 39.466H76.5431L73.0012 45.346V49.406H72.0492Z" fill="white"/>
<path d="M78.0081 49.406V39.466H79.3661L84.7001 48.468V39.466H85.6521V49.406H84.2381L78.9601 40.516V49.406H78.0081Z" fill="white"/>
<path d="M87.6172 49.406L91.2432 39.466H92.5032L96.1152 49.406H95.0792L94.0152 46.424H89.7172L88.6532 49.406H87.6172ZM90.0392 45.5H93.6932L91.8732 40.32L90.0392 45.5Z" fill="white"/>
<path d="M97.9846 49.406V39.466H99.3566L102.759 48.37L106.161 39.466H107.533V49.406H106.581V41.104L103.375 49.406H102.143L98.9366 41.104V49.406H97.9846Z" fill="white"/>
<path d="M110.406 49.406V39.466H111.358V49.406H110.406Z" fill="white"/>
<path d="M118.021 49.63C117.144 49.63 116.374 49.4247 115.711 49.014C115.058 48.594 114.549 47.9967 114.185 47.222C113.83 46.4473 113.653 45.5233 113.653 44.45C113.653 43.3767 113.83 42.4527 114.185 41.678C114.549 40.894 115.058 40.292 115.711 39.872C116.374 39.452 117.144 39.242 118.021 39.242C119.178 39.242 120.088 39.55 120.751 40.166C121.414 40.782 121.843 41.608 122.039 42.644L121.031 42.714C120.891 41.9393 120.569 41.3233 120.065 40.866C119.57 40.4087 118.889 40.18 118.021 40.18C117.34 40.18 116.747 40.3527 116.243 40.698C115.739 41.034 115.347 41.524 115.067 42.168C114.787 42.8027 114.647 43.5633 114.647 44.45C114.647 45.3367 114.787 46.0973 115.067 46.732C115.347 47.3667 115.739 47.852 116.243 48.188C116.747 48.524 117.34 48.692 118.021 48.692C118.926 48.692 119.636 48.4447 120.149 47.95C120.672 47.4553 120.994 46.7833 121.115 45.934L122.123 46.004C122.011 46.732 121.778 47.3667 121.423 47.908C121.068 48.4493 120.606 48.874 120.037 49.182C119.468 49.4807 118.796 49.63 118.021 49.63Z" fill="white"/>
<path d="M127.85 49.63C127.112 49.63 126.459 49.4853 125.89 49.196C125.33 48.9067 124.886 48.51 124.56 48.006C124.233 47.4927 124.051 46.914 124.014 46.27L125.008 46.2C125.045 46.6947 125.185 47.1333 125.428 47.516C125.67 47.8893 125.997 48.1787 126.408 48.384C126.818 48.5893 127.308 48.692 127.878 48.692C128.372 48.692 128.802 48.622 129.166 48.482C129.53 48.342 129.81 48.1367 130.006 47.866C130.202 47.5953 130.3 47.2687 130.3 46.886C130.3 46.5593 130.225 46.27 130.076 46.018C129.926 45.766 129.637 45.5327 129.208 45.318C128.778 45.1033 128.153 44.898 127.332 44.702C126.576 44.5153 125.969 44.31 125.512 44.086C125.064 43.862 124.737 43.5867 124.532 43.26C124.326 42.924 124.224 42.504 124.224 42C124.224 41.468 124.354 40.9967 124.616 40.586C124.877 40.166 125.25 39.8393 125.736 39.606C126.23 39.3633 126.818 39.242 127.5 39.242C128.228 39.242 128.848 39.3867 129.362 39.676C129.875 39.956 130.276 40.334 130.566 40.81C130.855 41.2767 131.023 41.7947 131.07 42.364L130.076 42.434C130.038 42.014 129.917 41.6313 129.712 41.286C129.506 40.9407 129.217 40.67 128.844 40.474C128.47 40.278 128.013 40.18 127.472 40.18C126.772 40.18 126.221 40.348 125.82 40.684C125.418 41.0107 125.218 41.44 125.218 41.972C125.218 42.308 125.292 42.588 125.442 42.812C125.591 43.0267 125.857 43.218 126.24 43.386C126.622 43.5447 127.168 43.7127 127.878 43.89C128.755 44.0953 129.441 44.3427 129.936 44.632C130.44 44.912 130.794 45.234 131 45.598C131.205 45.962 131.308 46.3773 131.308 46.844C131.308 47.4133 131.154 47.908 130.846 48.328C130.547 48.748 130.136 49.07 129.614 49.294C129.1 49.518 128.512 49.63 127.85 49.63Z" fill="white"/>
</svg>
